# xmcd
#
# Track frame offsets:
#	150
#	35437
#	70382
#	93692
#	126197
#	158287
#
# Disc length: 2532 seconds
#
# Revision: 1
# Processed by: cddbd v1.5.2PL0 Copyright (c) Steve Scherf et al.
# Submitted via: EZCDAudioConverter 1.2.3.1
#
DISCID=4809e206
DTITLE=Reynolds Stone y Su  Orquesta - Instrumental Para Recordar Vol II
DYEAR=1992
DGENRE=Instrumental
TTITLE0=Calla Tristeza - Sorpresa - Mi Querer - Vereda Tropical - Luna Amiga
TTITLE1=Señor Amor - Contigo Aprendí - Somos Novios - No - Esta Tarde Vi Llove
TTITLE1=r
TTITLE2=Mucho - Corazón Sin Mañana Ni Ayer - Devuelveme el Corazón - Mil Besos
TTITLE3=La Cita - Que Cosa Es El Amor - Mazatlán - Anoche - Mar
TTITLE4=Luz de Luna - Cancionero - Tu No Estás - Amor Mío - Sabor a Mí
TTITLE5=Ella - El Jinete - Un Mundo Raro - Si Nos Dejan - Serenata Huasteca
EXTD=
EXTT0=
EXTT1=
EXTT2=
EXTT3=
EXTT4=
EXTT5=
PLAYORDER=
